<?xml version="1.0" encoding="UTF-8" standalone="no"?>
<!-- Created with Inkscape (http://www.inkscape.org/) -->

<svg
   width="48.175308mm"
   height="21.025675mm"
   viewBox="0 0 48.175308 21.025675"
   version="1.1"
   id="svg29180"
   inkscape:version="1.1 (c4e8f9e, 2021-05-24)"
   sodipodi:docname="getscode.svg"
   xmlns:inkscape="http://www.inkscape.org/namespaces/inkscape"
   xmlns:sodipodi="http://sodipodi.sourceforge.net/DTD/sodipodi-0.dtd"
   xmlns="http://www.w3.org/2000/svg"
   xmlns:svg="http://www.w3.org/2000/svg">
  <sodipodi:namedview
     id="namedview29182"
     pagecolor="#ffffff"
     bordercolor="#666666"
     borderopacity="1.0"
     inkscape:pageshadow="2"
     inkscape:pageopacity="0.0"
     inkscape:pagecheckerboard="0"
     inkscape:document-units="mm"
     showgrid="false"
     inkscape:zoom="0.67081229"
     inkscape:cx="90.93453"
     inkscape:cy="39.504345"
     inkscape:window-width="2493"
     inkscape:window-height="1387"
     inkscape:window-x="0"
     inkscape:window-y="25"
     inkscape:window-maximized="0"
     inkscape:current-layer="layer1"
     fit-margin-top="0"
     fit-margin-left="0"
     fit-margin-right="0"
     fit-margin-bottom="0" />
  <defs
     id="defs29177" />
  <g
     inkscape:label="Layer 1"
     inkscape:groupmode="layer"
     id="layer1"
     transform="translate(-80.828701,-138.18437)">
    <path
       d="m 100.83507,156.51066 q 0.0991,0.0826 0.0991,0.1651 0,0.066 -0.0825,0.19812 -0.066,0.11557 -0.31369,0.36322 -0.23114,0.24765 -0.6604,0.56134 -0.41275,0.31369 -1.08966,0.52832 -0.6604,0.21463 -1.41986,0.21463 -1.73355,0 -2.90576,-1.13919 -1.1557,-1.13919 -1.1557,-3.05435 0,-1.93167 1.1557,-3.03784 1.17221,-1.12268 2.85623,-1.12268 1.68402,0 2.54254,1.22174 h 0.01651 l -0.01651,-0.90805 q 0,-0.21463 0.21463,-0.21463 h 0.62738 q 0.19812,0 0.19812,0.21463 v 2.8067 q 0,0.19812 -0.19812,0.19812 h -0.75946 q -0.19812,0 -0.19812,-0.19812 v -0.28067 q -0.01651,-0.59436 -0.67691,-1.13919 -0.6604,-0.54483 -1.68402,-0.54483 -1.00711,0 -1.84912,0.80899 -0.84201,0.80899 -0.84201,2.21234 0,1.38684 0.8255,2.21234 0.8255,0.80899 1.84912,0.80899 1.02362,0 1.73355,-0.42926 0.72644,-0.44577 0.97409,-0.85852 0.11557,-0.19812 0.28067,-0.0495 z"
       id="path28862"
       style="font-size:16.51px;line-height:1.25;font-family:Sanchez;-inkscape-font-specification:'Sanchez, Normal ';font-variation-settings:'wght' 447;stroke-width:0.0700042" />
    <path
       d="m 109.27271,157.38569 q -1.1557,1.1557 -2.95529,1.1557 -1.79959,0 -2.95529,-1.13919 -1.1557,-1.1557 -1.1557,-3.05435 0,-1.91516 1.17221,-3.03784 1.17221,-1.12268 2.93878,-1.12268 1.78308,0 2.93878,1.13919 1.17221,1.12268 1.17221,3.02133 0,1.88214 -1.1557,3.03784 z m -5.67944,-3.03784 q 0,1.35382 0.79248,2.19583 0.79248,0.84201 1.93167,0.84201 1.1557,0 1.94818,-0.84201 0.79248,-0.84201 0.79248,-2.19583 0,-1.35382 -0.80899,-2.17932 -0.79248,-0.8255 -1.91516,-0.8255 -1.12268,0 -1.93167,0.8255 -0.80899,0.8255 -0.80899,2.17932 z"
       id="path28864"
       style="font-size:16.51px;line-height:1.25;font-family:Sanchez;-inkscape-font-specification:'Sanchez, Normal ';font-variation-settings:'wght' 447;stroke-width:0.0700042" />
    <path
       id="path28866"
       style="font-size:16.51px;line-height:1.25;font-family:Sanchez;-inkscape-font-specification:'Sanchez, Normal ';font-variation-settings:'wght' 447;stroke-width:0.0700042"
       d="m 117.99567,149.67925 v 1.5813 c 0,0.14309 0.006,0.32454 0.0165,0.54467 h -0.0165 c -0.19812,-0.45127 -0.52231,-0.83076 -0.97358,-1.13895 -0.45128,-0.31919 -1.01826,-0.47904 -1.70067,-0.47904 -1.11168,0 -2.01443,0.38554 -2.70785,1.156 -0.68241,0.75946 -1.02371,1.76625 -1.02371,3.02101 0,1.24375 0.3413,2.25105 1.02371,3.02152 0.69342,0.77046 1.59064,1.15548 2.69131,1.15548 0.69342,0 1.28201,-0.17039 1.7663,-0.51159 0.48429,-0.35222 0.81453,-0.75935 0.99064,-1.22163 h 0.0165 v 0.92449 c 0,0.25315 0.0553,0.4346 0.16537,0.54467 0.12107,0.0991 0.30805,0.14882 0.5612,0.14882 h 1.43661 c 0.13208,0 0.19792,-0.0663 0.19792,-0.19843 v -0.71004 c 0,-0.13208 -0.0658,-0.19792 -0.19792,-0.19792 h -0.92501 v -7.64036 z m -2.50941,1.66398 c 0.71544,0 1.3156,0.26941 1.79989,0.80874 0.4843,0.52832 0.72606,1.25463 0.72606,2.17919 0,0.92456 -0.23623,1.66747 -0.70952,2.22881 -0.47329,0.55033 -1.07898,0.82579 -1.81643,0.82579 -0.73744,0 -1.34815,-0.28099 -1.83244,-0.84233 -0.47329,-0.56134 -0.71004,-1.29871 -0.71004,-2.21227 0,-0.91355 0.24228,-1.63986 0.72657,-2.17919 0.4953,-0.53933 1.10048,-0.80874 1.81591,-0.80874 z" />
    <path
       d="m 128.73981,154.52946 h -5.9436 q 0.066,1.37033 0.85852,2.11328 0.80899,0.74295 1.8161,0.74295 1.00711,0 1.71704,-0.42926 0.72644,-0.42926 0.97409,-0.84201 0.13208,-0.1651 0.29718,-0.0495 l 0.44577,0.44577 q 0.0991,0.0991 0.0991,0.18161 0,0.066 -0.0825,0.18161 -0.066,0.11557 -0.29718,0.36322 -0.23114,0.24765 -0.6604,0.56134 -0.41275,0.31369 -1.08966,0.52832 -0.6604,0.21463 -1.41986,0.21463 -1.73355,0 -2.90576,-1.13919 -1.1557,-1.13919 -1.1557,-3.05435 0,-1.93167 1.1557,-3.03784 1.1557,-1.12268 2.82321,-1.12268 1.68402,0 2.6416,1.08966 0.95758,1.07315 0.95758,2.90576 0,0.066 0,0.13208 0,0.21463 -0.23114,0.21463 z m -1.13919,-1.00711 q -0.0495,-1.02362 -0.64389,-1.63449 -0.59436,-0.61087 -1.58496,-0.61087 -0.9906,0 -1.70053,0.56134 -0.70993,0.56134 -0.84201,1.68402 z"
       id="path28868"
       style="font-size:16.51px;line-height:1.25;font-family:Sanchez;-inkscape-font-specification:'Sanchez, Normal ';font-variation-settings:'wght' 447;stroke-width:0.0700042" />
    <g
       aria-label="gets"
       id="text8868-0"
       style="font-size:16.51px;line-height:1.25;font-family:Sanchez;-inkscape-font-specification:'Sanchez, Normal ';stroke-width:0.264583"
       transform="translate(14.224379,56.173182)">
      <path
         d="m 85.48801,92.346452 v -1.88214 c -0.19812,0.46228 -0.52832,0.85852 -0.9906,1.18872 -0.451273,0.3302 -1.018117,0.4953 -1.70053,0.4953 -1.12268,0 -2.025227,-0.390737 -2.70764,-1.17221 -0.671407,-0.781473 -1.00711,-1.794087 -1.00711,-3.03784 0,-1.243753 0.341207,-2.24536 1.02362,-3.00482 0.69342,-0.75946 1.590463,-1.13919 2.69113,-1.13919 0.682413,0 1.25476,0.159597 1.71704,0.47879 0.473287,0.308187 0.814493,0.687917 1.02362,1.13919 h 0.03302 l -0.01651,-1.30429 c 0,-0.13208 0.06604,-0.19812 0.19812,-0.19812 h 1.94818 c 0.13208,0 0.19812,0.06604 0.19812,0.19812 v 0.70993 c 0,0.13208 -0.06604,0.19812 -0.19812,0.19812 h -0.89154 v 7.33044 z m -5.05206,-4.37515 c 0,0.902547 0.242147,1.63449 0.72644,2.19583 0.484293,0.550333 1.08966,0.8255 1.8161,0.8255 0.72644,0 1.326303,-0.275167 1.79959,-0.8255 0.484293,-0.550333 0.72644,-1.28778 0.72644,-2.21234 0,-0.92456 -0.242147,-1.656503 -0.72644,-2.19583 -0.473287,-0.539327 -1.07315,-0.80899 -1.79959,-0.80899 -0.72644,0 -1.331807,0.275167 -1.8161,0.8255 -0.484293,0.550333 -0.72644,1.282277 -0.72644,2.19583 z"
         id="path11992-8"
         sodipodi:nodetypes="cccscscsccccssssscccscscscsss" />
      <path
         d="m 96.1674,88.136402 h -5.9436 q 0.06604,1.37033 0.85852,2.11328 0.80899,0.74295 1.8161,0.74295 1.00711,0 1.71704,-0.42926 0.72644,-0.42926 0.97409,-0.84201 0.13208,-0.1651 0.29718,-0.04953 l 0.44577,0.44577 q 0.09906,0.09906 0.09906,0.18161 0,0.06604 -0.08255,0.18161 -0.06604,0.11557 -0.29718,0.36322 -0.23114,0.24765 -0.6604,0.56134 -0.41275,0.31369 -1.08966,0.52832 -0.6604,0.21463 -1.41986,0.21463 -1.73355,0 -2.90576,-1.13919 -1.1557,-1.13919 -1.1557,-3.05435 0,-1.93167 1.1557,-3.03784 1.1557,-1.12268 2.82321,-1.12268 1.68402,0 2.6416,1.08966 0.95758,1.07315 0.95758,2.90576 0,0.06604 0,0.13208 0,0.21463 -0.23114,0.21463 z m -1.13919,-1.00711 q -0.04953,-1.02362 -0.64389,-1.63449 -0.59436,-0.61087 -1.58496,-0.61087 -0.9906,0 -1.70053,0.56134 -0.70993,0.56134 -0.84201,1.68402 z"
         id="path11994-2" />
      <path
         d="m 103.10573,91.190752 c 0.044,0.04403 0.066,0.09356 0.066,0.14859 0,0.04403 -0.033,0.09906 -0.0991,0.1651 -0.48429,0.42926 -1.09516,0.64389 -1.83261,0.64389 -0.72644,0 -1.326304,-0.236643 -1.799592,-0.70993 -0.46228,-0.484293 -0.69342,-1.183217 -0.69342,-2.09677 v -4.32562 h -0.92456 c -0.154093,0 -0.23114,-0.07154 -0.23114,-0.21463 v -0.67691 c 0,-0.143087 0.07705,-0.21463 0.23114,-0.21463 h 0.92456 v -1.66751 c 0,-0.154093 0.07705,-0.23114 0.23114,-0.23114 h 0.92456 c 0.143092,0 0.214632,0.07705 0.214632,0.23114 v 1.66751 h 2.09677 c 0.15409,0 0.23114,0.07154 0.23114,0.21463 v 0.67691 c 0,0.143087 -0.077,0.21463 -0.23114,0.21463 h -2.09677 v 4.2926 c 0,0.550333 0.12107,0.968587 0.36322,1.25476 0.25315,0.275167 0.58335,0.41275 0.9906,0.41275 0.41825,0 0.73194,-0.104563 0.94107,-0.31369 0.11007,-0.09906 0.20913,-0.09356 0.29718,0.01651 z"
         id="path11996-5"
         sodipodi:nodetypes="cscscscsssscsssscsssscscsccc" />
      <path
         d="m 107.73807,92.148332 q -1.10617,0 -1.76657,-0.41275 -0.6604,-0.41275 -0.8255,-0.77597 h -0.033 q 0.033,0.80899 0.033,0.85852 0,0.21463 -0.23114,0.21463 h -0.56134 q -0.21463,0 -0.21463,-0.21463 v -2.4765 q 0,-0.21463 0.21463,-0.21463 h 0.64389 q 0.23114,0 0.23114,0.21463 v 0.3302 q 0.1651,0.4953 0.69342,0.90805 0.62738,0.4953 1.56845,0.4953 1.84912,0 1.84912,-1.28778 0,-0.44577 -0.51181,-0.70993 -0.51181,-0.28067 -1.25476,-0.46228 -0.72644,-0.18161 -1.45288,-0.41275 -0.72644,-0.23114 -1.23825,-0.74295 -0.51181,-0.52832 -0.51181,-1.3208 0,-1.07315 0.77597,-1.70053 0.77597,-0.64389 1.9812,-0.64389 1.63449,0 2.34442,0.95758 h 0.033 q -0.033,-0.59436 -0.033,-0.61087 0,-0.21463 0.21463,-0.21463 h 0.52832 q 0.21463,0 0.21463,0.21463 v 2.29489 q 0,0.21463 -0.21463,0.21463 h -0.64389 q -0.23114,0 -0.23114,-0.21463 v -0.23114 q 0,-0.44577 -0.52832,-0.87503 -0.51181,-0.44577 -1.33731,-0.44577 -0.8255,0 -1.28778,0.34671 -0.46228,0.34671 -0.46228,0.90805 0,0.54483 0.51181,0.85852 0.52832,0.29718 1.27127,0.47879 0.74295,0.1651 1.4859,0.37973 0.74295,0.21463 1.25476,0.70993 0.52832,0.4953 0.52832,1.37033 0,0.87503 -0.75946,1.55194 -0.74295,0.6604 -2.27838,0.6604 z"
         id="path11998-8" />
    </g>
    <g
       aria-label="{}"
       id="text22463-0"
       style="font-size:24.5012px;line-height:1.25;font-family:Inconsolata;-inkscape-font-specification:'Inconsolata, @wght=447';font-variation-settings:'wght' 447;stroke-width:0.392647"
       transform="translate(13.662031,58.090608)">
      <path
         d="m 71.282873,101.11944 q -0.882043,0 -1.543576,-0.36752 -0.637031,-0.34302 -0.980048,-1.274062 -0.318515,-0.931046 -0.269513,-2.64613 l 0.0245,-2.45012 q 0,-1.078052 -0.122506,-1.666081 -0.122506,-0.588029 -0.367518,-0.80854 -0.245012,-0.220511 -0.61253,-0.220511 H 67.16667 v -1.470072 h 0.245012 q 0.367518,0 0.61253,-0.245012 0.269514,-0.269513 0.39202,-0.83304 0.122506,-0.563528 0.122506,-1.494574 l -0.0245,-1.764086 q 0,-1.421069 0.294015,-2.352115 0.318515,-0.955547 0.857542,-1.42107 0.563527,-0.490024 1.298563,-0.490024 h 0.784039 v 1.372068 h -0.784039 q -0.514525,0 -0.83304,0.686033 -0.294015,0.661533 -0.294015,1.935595 l 0.0245,1.715084 q 0,0.906544 -0.147007,1.617079 -0.147007,0.686034 -0.392019,1.200559 -0.245012,0.490024 -0.61253,0.808539 0.343017,0.220511 0.588029,0.735036 0.269513,0.490024 0.392019,1.249562 0.147007,0.759537 0.147007,1.813088 l -0.0245,2.058101 q 0,1.078053 0.122506,1.739585 0.147007,0.661533 0.441022,0.931046 0.294014,0.294014 0.735036,0.294014 h 0.61253 v 1.347568 z"
         id="path24763-3" />
      <path
         d="m 74.027007,101.11944 h -0.441021 v -1.347568 h 0.61253 q 0.465523,0 0.735036,-0.294014 0.294014,-0.269513 0.41652,-0.931046 0.147007,-0.661532 0.147007,-1.739585 l -0.0245,-2.058101 q 0,-1.053551 0.147007,-1.813088 0.147007,-0.759538 0.367518,-1.249562 0.245012,-0.514525 0.61253,-0.735036 -0.343017,-0.318515 -0.61253,-0.808539 -0.245012,-0.514525 -0.392019,-1.200559 -0.147007,-0.710535 -0.147007,-1.617079 l 0.0245,-1.715084 q 0,-1.274062 -0.294014,-1.935595 -0.294015,-0.686033 -0.833041,-0.686033 h -0.784038 v -1.372068 h 0.784038 q 0.735036,0 1.274062,0.490024 0.563528,0.465523 0.857542,1.42107 0.318516,0.931046 0.318516,2.352115 l -0.0245,1.764086 q 0,0.931046 0.122506,1.494574 0.122506,0.563527 0.367518,0.83304 0.269513,0.245012 0.637031,0.245012 h 0.245012 v 1.470072 h -0.245012 q -0.343017,0 -0.61253,0.220511 -0.245012,0.220511 -0.367518,0.80854 -0.122506,0.588029 -0.122506,1.666081 l 0.049,2.45012 q 0.049,1.715084 -0.294014,2.64613 -0.343017,0.931042 -1.004549,1.274062 -0.637031,0.36752 -1.519075,0.36752 z"
         id="path24765-2" />
    </g>
  </g>
</svg>
