<?xml version="1.0" encoding="UTF-8" standalone="no"?>
<!-- Created with Inkscape (http://www.inkscape.org/) -->

<svg
   width="78.369576mm"
   height="24.498144mm"
   viewBox="0 0 78.369576 24.498144"
   version="1.1"
   id="svg5"
   inkscape:version="1.1 (c4e8f9e, 2021-05-24)"
   sodipodi:docname="drawing.svg"
   xmlns:inkscape="http://www.inkscape.org/namespaces/inkscape"
   xmlns:sodipodi="http://sodipodi.sourceforge.net/DTD/sodipodi-0.dtd"
   xmlns="http://www.w3.org/2000/svg"
   xmlns:svg="http://www.w3.org/2000/svg">
  <sodipodi:namedview
     id="namedview7"
     pagecolor="#ffffff"
     bordercolor="#666666"
     borderopacity="1.0"
     inkscape:pageshadow="2"
     inkscape:pageopacity="0.0"
     inkscape:pagecheckerboard="0"
     inkscape:document-units="mm"
     showgrid="false"
     inkscape:zoom="2.8284271"
     inkscape:cx="-119.67782"
     inkscape:cy="141.95169"
     inkscape:window-width="3440"
     inkscape:window-height="1387"
     inkscape:window-x="-1"
     inkscape:window-y="25"
     inkscape:window-maximized="0"
     inkscape:current-layer="layer1"
     fit-margin-top="0"
     fit-margin-left="0"
     fit-margin-right="0"
     fit-margin-bottom="0" />
  <defs
     id="defs2" />
  <g
     inkscape:label="Layer 1"
     inkscape:groupmode="layer"
     id="layer1"
     transform="translate(-78.979674,-80.093766)">
    <g
       id="g16891">
      <g
         aria-label="
developed"
         id="text415"
         style="font-size:25.4px;line-height:0.3;font-family:Inconsolata;-inkscape-font-specification:'Inconsolata, @wght=447';font-variation-settings:'wght' 447;stroke-width:0.264583"
         transform="translate(-0.14010642)">
        <path
           id="path16703"
           style="font-size:65%;font-family:Sanchez;-inkscape-font-specification:'Sanchez, @wght=447';baseline-shift:super;stroke-width:0.999999"
           d="m 322.70898,347.45898 v 6.72657 c 0,0.5408 0.0209,1.22854 0.0625,2.06054 h -0.0625 c -0.7488,-1.7056 -1.97604,-3.14184 -3.68164,-4.30664 -1.7056,-1.2064 -3.84853,-1.80859 -6.42773,-1.80859 -4.2016,0 -7.61358,1.45519 -10.23438,4.36719 -2.50433,2.78707 -3.78676,6.4597 -3.85937,11.01172 h 5.11719 c 0.0499,-3.31733 0.95728,-5.97192 2.73633,-7.95313 1.87199,-2.0384 4.15928,-3.05859 6.86328,-3.05859 2.704,0 4.97233,1.02019 6.80273,3.05859 1.8304,1.9968 2.74609,4.74193 2.74609,8.23633 0,3.4944 -0.89479,6.30223 -2.68359,8.42383 -1.7888,2.08 -4.07803,3.11914 -6.86523,3.11914 -2.7872,0 -5.09539,-1.06004 -6.92578,-3.18164 -0.84736,-1.005 -1.49145,-2.1612 -1.9375,-3.46485 h -5.34766 c 0.5964,2.57683 1.71235,4.79356 3.35351,6.64649 2.6208,2.91199 6.01188,4.36914 10.17188,4.36914 2.6208,0 4.84733,-0.64595 6.67773,-1.93555 1.8304,-1.33119 3.07659,-2.86999 3.74219,-4.61719 h 0.0625 v 3.49414 c 0,0.9568 0.209,1.64455 0.625,2.06055 0.4576,0.3744 1.1643,0.56055 2.12109,0.56055 h 5.42969 c 0.4992,0 0.74805,-0.24885 0.74805,-0.74805 v -2.68359 c 0,-0.4992 -0.24885,-0.74805 -0.74805,-0.74805 h -3.49414 v -29.62891 z"
           transform="matrix(0.26458333,0,0,0.26458333,0.14010642,0)" />
        <path
           d="m 96.267184,96.980803 h -5.943599 q 0.06604,1.37033 0.85852,2.11328 0.80899,0.74295 1.8161,0.74295 1.00711,0 1.71704,-0.42926 0.72644,-0.42926 0.97409,-0.84201 0.132079,-0.1651 0.297179,-0.04953 l 0.44577,0.44577 q 0.09906,0.09906 0.09906,0.18161 0,0.06604 -0.08255,0.18161 -0.06604,0.11557 -0.29718,0.36322 -0.23114,0.24765 -0.660399,0.561337 -0.41275,0.31369 -1.08966,0.52832 -0.6604,0.21463 -1.41986,0.21463 -1.73355,0 -2.90576,-1.139187 -1.1557,-1.13919 -1.1557,-3.05435 0,-1.93167 1.1557,-3.03784 1.1557,-1.12268 2.82321,-1.12268 1.68402,0 2.6416,1.08966 0.957579,1.07315 0.957579,2.90576 0,0.06604 0,0.13208 0,0.21463 -0.23114,0.21463 z m -1.139189,-1.00711 q -0.04953,-1.02362 -0.64389,-1.63449 -0.59436,-0.61087 -1.58496,-0.61087 -0.9906,0 -1.70053,0.56134 -0.70993,0.56134 -0.84201,1.68402 z"
           style="font-size:65%;font-family:Sanchez;-inkscape-font-specification:'Sanchez, @wght=447';baseline-shift:super"
           id="path12550" />
        <path
           d="m 102.31707,100.87716 h -1.10617 q -0.1651,0 -0.23114,-0.0495 -0.066,-0.066 -0.13208,-0.24765 l -2.625093,-6.719567 h -0.92456 q -0.19812,0 -0.19812,-0.19812 v -0.70993 q 0,-0.19812 0.19812,-0.19812 h 3.070863 q 0.19812,0 0.19812,0.19812 v 0.70993 q 0,0.19812 -0.19812,0.19812 h -0.726443 l 2.113283,5.56387 h 0.033 l 2.1463,-5.56387 h -0.74295 q -0.19812,0 -0.19812,-0.19812 v -0.70993 q 0,-0.19812 0.19812,-0.19812 h 3.07086 q 0.21463,0 0.21463,0.19812 v 0.70993 q 0,0.19812 -0.21463,0.19812 h -0.90805 l -2.65811,6.719567 q -0.0991,0.29718 -0.37973,0.29718 z"
           style="font-size:65%;font-family:Sanchez;-inkscape-font-specification:'Sanchez, @wght=447';baseline-shift:super"
           id="path12552" />
        <path
           d="m 114.2605,96.980803 h -5.9436 q 0.066,1.37033 0.85852,2.11328 0.80899,0.74295 1.8161,0.74295 1.00711,0 1.71704,-0.42926 0.72644,-0.42926 0.97409,-0.84201 0.13208,-0.1651 0.29718,-0.04953 l 0.44577,0.44577 q 0.0991,0.09906 0.0991,0.18161 0,0.06604 -0.0825,0.18161 -0.066,0.11557 -0.29718,0.36322 -0.23114,0.24765 -0.6604,0.561337 -0.41275,0.31369 -1.08966,0.52832 -0.6604,0.21463 -1.41986,0.21463 -1.73355,0 -2.90576,-1.139187 -1.1557,-1.13919 -1.1557,-3.05435 0,-1.93167 1.1557,-3.03784 1.1557,-1.12268 2.82321,-1.12268 1.68402,0 2.6416,1.08966 0.95758,1.07315 0.95758,2.90576 0,0.06604 0,0.13208 0,0.21463 -0.23114,0.21463 z m -1.13919,-1.00711 q -0.0495,-1.02362 -0.64389,-1.63449 -0.59436,-0.61087 -1.58496,-0.61087 -0.9906,0 -1.70053,0.56134 -0.70993,0.56134 -0.84201,1.68402 z"
           style="font-size:65%;font-family:Sanchez;-inkscape-font-specification:'Sanchez, @wght=447';baseline-shift:super"
           id="path12554" />
        <path
           d="m 119.05253,100.87716 h -3.15341 q -0.21463,0 -0.21463,-0.19812 v -0.709927 q 0,-0.19812 0.21463,-0.19812 h 0.90805 v -9.641839 h -0.90805 q -0.21463,0 -0.21463,-0.19812 v -0.70993 q 0,-0.19812 0.21463,-0.19812 h 1.83261 q 0.44577,0 0.44577,0.41275 v 10.335259 h 0.87503 q 0.21463,0 0.21463,0.19812 v 0.709927 q 0,0.19812 -0.21463,0.19812 z"
           style="font-size:65%;font-family:Sanchez;-inkscape-font-specification:'Sanchez, @wght=447';baseline-shift:super"
           id="path12556" />
        <path
           d="m 127.49095,99.837033 q -1.1557,1.155697 -2.95529,1.155697 -1.79959,0 -2.95529,-1.139187 -1.1557,-1.1557 -1.1557,-3.05435 0,-1.91516 1.17221,-3.03784 1.17221,-1.12268 2.93878,-1.12268 1.78308,0 2.93878,1.13919 1.17221,1.12268 1.17221,3.02133 0,1.88214 -1.1557,3.03784 z m -5.67944,-3.03784 q 0,1.35382 0.79248,2.19583 0.79248,0.84201 1.93167,0.84201 1.1557,0 1.94818,-0.84201 0.79248,-0.84201 0.79248,-2.19583 0,-1.35382 -0.80899,-2.17932 -0.79248,-0.8255 -1.91516,-0.8255 -1.12268,0 -1.93167,0.8255 -0.80899,0.8255 -0.80899,2.17932 z"
           style="font-size:65%;font-family:Sanchez;-inkscape-font-specification:'Sanchez, @wght=447';baseline-shift:super"
           id="path12558" />
        <path
           d="m 133.27693,104.59191 h -3.31851 q -0.21463,0 -0.21463,-0.19812 v -0.70993 q 0,-0.19812 0.21463,-0.19812 h 0.92456 v -9.625327 h -0.89154 q -0.21463,0 -0.21463,-0.19812 v -0.70993 q 0,-0.19812 0.21463,-0.19812 h 1.93167 q 0.21463,0 0.21463,0.19812 l -0.0165,1.30429 h 0.0165 q 0.31369,-0.67691 1.00711,-1.13919 0.70993,-0.47879 1.73354,-0.47879 1.66751,0 2.69113,1.13919 1.02362,1.12268 1.02362,3.00482 0,1.86563 -1.00711,3.03784 -1.00711,1.172207 -2.69113,1.172207 -1.02361,0 -1.71703,-0.46228 -0.67691,-0.47879 -0.97409,-1.155697 h -0.0495 q 0.0495,0.52832 0.0495,0.759457 v 3.35153 h 1.07315 q 0.21463,0 0.21463,0.19812 v 0.70993 q 0,0.19812 -0.21463,0.19812 z m -1.10617,-7.743187 q 0,1.43637 0.74295,2.21234 0.75946,0.77597 1.81609,0.77597 1.07315,0 1.78308,-0.8255 0.72644,-0.84201 0.72644,-2.19583 0,-1.37033 -0.72644,-2.19583 -0.70993,-0.8255 -1.78308,-0.8255 -1.07314,0 -1.81609,0.80899 -0.74295,0.80899 -0.74295,2.24536 z"
           style="font-size:65%;font-family:Sanchez;-inkscape-font-specification:'Sanchez, @wght=447';baseline-shift:super"
           id="path12560" />
        <path
           d="m 147.11927,96.980803 h -5.9436 q 0.066,1.37033 0.85852,2.11328 0.80899,0.74295 1.8161,0.74295 1.00711,0 1.71704,-0.42926 0.72644,-0.42926 0.97409,-0.84201 0.13208,-0.1651 0.29718,-0.04953 l 0.44577,0.44577 q 0.0991,0.09906 0.0991,0.18161 0,0.06604 -0.0825,0.18161 -0.066,0.11557 -0.29718,0.36322 -0.23114,0.24765 -0.6604,0.561337 -0.41275,0.31369 -1.08966,0.52832 -0.6604,0.21463 -1.41986,0.21463 -1.73355,0 -2.90576,-1.139187 -1.1557,-1.13919 -1.1557,-3.05435 0,-1.93167 1.1557,-3.03784 1.1557,-1.12268 2.82321,-1.12268 1.68402,0 2.6416,1.08966 0.95758,1.07315 0.95758,2.90576 0,0.06604 0,0.13208 0,0.21463 -0.23114,0.21463 z m -1.13919,-1.00711 q -0.0495,-1.02362 -0.64389,-1.63449 -0.59436,-0.61087 -1.58496,-0.61087 -0.9906,0 -1.70053,0.56134 -0.70993,0.56134 -0.84201,1.68402 z"
           style="font-size:65%;font-family:Sanchez;-inkscape-font-specification:'Sanchez, @wght=447';baseline-shift:super"
           id="path12562" />
        <path
           d="m 157.29123,100.87716 h -1.43637 q -0.37973,0 -0.56134,-0.14859 -0.1651,-0.1651 -0.1651,-0.54483 v -0.924557 h -0.0165 q -0.26416,0.69342 -0.9906,1.221737 -0.72644,0.51181 -1.76657,0.51181 -1.651,0 -2.69113,-1.155697 -1.02362,-1.1557 -1.02362,-3.02133 0,-1.88214 1.02362,-3.02133 1.04013,-1.1557 2.70764,-1.1557 1.02362,0 1.70053,0.47879 0.67691,0.46228 0.97409,1.13919 h 0.0165 q -0.0165,-0.3302 -0.0165,-0.54483 v -3.582669 h -0.92456 q -0.21463,0 -0.21463,-0.19812 v -0.70993 q 0,-0.19812 0.21463,-0.19812 h 2.04724 q 0.19812,0 0.19812,0.19812 v 10.549889 h 0.92456 q 0.19812,0 0.19812,0.19812 v 0.709927 q 0,0.19812 -0.19812,0.19812 z m -7.29742,-4.094477 q 0,1.37033 0.70993,2.21234 0.72644,0.84201 1.83261,0.84201 1.10617,0 1.8161,-0.8255 0.70993,-0.84201 0.70993,-2.22885 0,-1.38684 -0.72644,-2.17932 -0.72644,-0.80899 -1.79959,-0.80899 -1.07315,0 -1.8161,0.80899 -0.72644,0.80899 -0.72644,2.17932 z"
           style="font-size:65%;font-family:Sanchez;-inkscape-font-specification:'Sanchez, @wght=447';baseline-shift:super"
           id="path12564" />
      </g>
      <g
         aria-label="gets"
         id="text8868"
         style="font-size:16.51px;line-height:1.25;font-family:Sanchez;-inkscape-font-specification:'Sanchez, Normal ';stroke-width:0.264583"
         transform="translate(-0.10245554,-1.9174263)">
        <path
           d="m 85.48801,92.346452 v -1.88214 c -0.19812,0.46228 -0.52832,0.85852 -0.9906,1.18872 -0.451273,0.3302 -1.018117,0.4953 -1.70053,0.4953 -1.12268,0 -2.025227,-0.390737 -2.70764,-1.17221 -0.671407,-0.781473 -1.00711,-1.794087 -1.00711,-3.03784 0,-1.243753 0.341207,-2.24536 1.02362,-3.00482 0.69342,-0.75946 1.590463,-1.13919 2.69113,-1.13919 0.682413,0 1.25476,0.159597 1.71704,0.47879 0.473287,0.308187 0.814493,0.687917 1.02362,1.13919 h 0.03302 l -0.01651,-1.30429 c 0,-0.13208 0.06604,-0.19812 0.19812,-0.19812 h 1.94818 c 0.13208,0 0.19812,0.06604 0.19812,0.19812 v 0.70993 c 0,0.13208 -0.06604,0.19812 -0.19812,0.19812 h -0.89154 v 7.33044 z m -5.05206,-4.37515 c 0,0.902547 0.242147,1.63449 0.72644,2.19583 0.484293,0.550333 1.08966,0.8255 1.8161,0.8255 0.72644,0 1.326303,-0.275167 1.79959,-0.8255 0.484293,-0.550333 0.72644,-1.28778 0.72644,-2.21234 0,-0.92456 -0.242147,-1.656503 -0.72644,-2.19583 -0.473287,-0.539327 -1.07315,-0.80899 -1.79959,-0.80899 -0.72644,0 -1.331807,0.275167 -1.8161,0.8255 -0.484293,0.550333 -0.72644,1.282277 -0.72644,2.19583 z"
           id="path11992"
           sodipodi:nodetypes="cccscscsccccssssscccscscscsss" />
        <path
           d="m 96.1674,88.136402 h -5.9436 q 0.06604,1.37033 0.85852,2.11328 0.80899,0.74295 1.8161,0.74295 1.00711,0 1.71704,-0.42926 0.72644,-0.42926 0.97409,-0.84201 0.13208,-0.1651 0.29718,-0.04953 l 0.44577,0.44577 q 0.09906,0.09906 0.09906,0.18161 0,0.06604 -0.08255,0.18161 -0.06604,0.11557 -0.29718,0.36322 -0.23114,0.24765 -0.6604,0.56134 -0.41275,0.31369 -1.08966,0.52832 -0.6604,0.21463 -1.41986,0.21463 -1.73355,0 -2.90576,-1.13919 -1.1557,-1.13919 -1.1557,-3.05435 0,-1.93167 1.1557,-3.03784 1.1557,-1.12268 2.82321,-1.12268 1.68402,0 2.6416,1.08966 0.95758,1.07315 0.95758,2.90576 0,0.06604 0,0.13208 0,0.21463 -0.23114,0.21463 z m -1.13919,-1.00711 q -0.04953,-1.02362 -0.64389,-1.63449 -0.59436,-0.61087 -1.58496,-0.61087 -0.9906,0 -1.70053,0.56134 -0.70993,0.56134 -0.84201,1.68402 z"
           id="path11994" />
        <path
           d="m 103.10573,91.190752 c 0.044,0.04403 0.066,0.09356 0.066,0.14859 0,0.04403 -0.033,0.09906 -0.0991,0.1651 -0.48429,0.42926 -1.09516,0.64389 -1.83261,0.64389 -0.72644,0 -1.326304,-0.236643 -1.799592,-0.70993 -0.46228,-0.484293 -0.69342,-1.183217 -0.69342,-2.09677 v -4.32562 h -0.92456 c -0.154093,0 -0.23114,-0.07154 -0.23114,-0.21463 v -0.67691 c 0,-0.143087 0.07705,-0.21463 0.23114,-0.21463 h 0.92456 v -1.66751 c 0,-0.154093 0.07705,-0.23114 0.23114,-0.23114 h 0.92456 c 0.143092,0 0.214632,0.07705 0.214632,0.23114 v 1.66751 h 2.09677 c 0.15409,0 0.23114,0.07154 0.23114,0.21463 v 0.67691 c 0,0.143087 -0.077,0.21463 -0.23114,0.21463 h -2.09677 v 4.2926 c 0,0.550333 0.12107,0.968587 0.36322,1.25476 0.25315,0.275167 0.58335,0.41275 0.9906,0.41275 0.41825,0 0.73194,-0.104563 0.94107,-0.31369 0.11007,-0.09906 0.20913,-0.09356 0.29718,0.01651 z"
           id="path11996"
           sodipodi:nodetypes="cscscscsssscsssscsssscscsccc" />
        <path
           d="m 107.73807,92.148332 q -1.10617,0 -1.76657,-0.41275 -0.6604,-0.41275 -0.8255,-0.77597 h -0.033 q 0.033,0.80899 0.033,0.85852 0,0.21463 -0.23114,0.21463 h -0.56134 q -0.21463,0 -0.21463,-0.21463 v -2.4765 q 0,-0.21463 0.21463,-0.21463 h 0.64389 q 0.23114,0 0.23114,0.21463 v 0.3302 q 0.1651,0.4953 0.69342,0.90805 0.62738,0.4953 1.56845,0.4953 1.84912,0 1.84912,-1.28778 0,-0.44577 -0.51181,-0.70993 -0.51181,-0.28067 -1.25476,-0.46228 -0.72644,-0.18161 -1.45288,-0.41275 -0.72644,-0.23114 -1.23825,-0.74295 -0.51181,-0.52832 -0.51181,-1.3208 0,-1.07315 0.77597,-1.70053 0.77597,-0.64389 1.9812,-0.64389 1.63449,0 2.34442,0.95758 h 0.033 q -0.033,-0.59436 -0.033,-0.61087 0,-0.21463 0.21463,-0.21463 h 0.52832 q 0.21463,0 0.21463,0.21463 v 2.29489 q 0,0.21463 -0.21463,0.21463 h -0.64389 q -0.23114,0 -0.23114,-0.21463 v -0.23114 q 0,-0.44577 -0.52832,-0.87503 -0.51181,-0.44577 -1.33731,-0.44577 -0.8255,0 -1.28778,0.34671 -0.46228,0.34671 -0.46228,0.90805 0,0.54483 0.51181,0.85852 0.52832,0.29718 1.27127,0.47879 0.74295,0.1651 1.4859,0.37973 0.74295,0.21463 1.25476,0.70993 0.52832,0.4953 0.52832,1.37033 0,0.87503 -0.75946,1.55194 -0.74295,0.6604 -2.27838,0.6604 z"
           id="path11998" />
      </g>
    </g>
  </g>
</svg>
