<?xml version="1.0" standalone="no"?>
<!DOCTYPE svg PUBLIC "-//W3C//DTD SVG 20010904//EN"
 "http://www.w3.org/TR/2001/REC-SVG-20010904/DTD/svg10.dtd">
<svg version="1.0" xmlns="http://www.w3.org/2000/svg"
 width="1184.000000pt" height="1184.000000pt" viewBox="0 0 1184.000000 1184.000000"
 preserveAspectRatio="xMidYMid meet">
<metadata>
Created by potrace 1.14, written by Peter Selinger 2001-2017
</metadata>
<g transform="translate(0.000000,1184.000000) scale(0.100000,-0.100000)"
fill="#000000" stroke="none">
<path d="M4758 11835 c-2 -1 -21 -6 -43 -9 -22 -3 -47 -7 -55 -9 -8 -2 -31 -7
-50 -11 -67 -14 -156 -48 -235 -88 -44 -22 -90 -46 -102 -52 -13 -6 -23 -14
-23 -18 0 -5 -5 -8 -10 -8 -12 0 -10 2 -110 -82 -99 -83 -138 -125 -219 -233
-107 -144 -176 -267 -246 -442 -20 -48 -40 -97 -45 -108 -17 -38 -80 -254 -95
-323 -20 -93 -40 -197 -50 -259 -26 -169 -35 -247 -52 -473 -7 -96 -9 -769 -3
-1460 3 -288 -6 -523 -24 -685 -47 -407 -140 -664 -293 -812 -58 -57 -108 -88
-185 -114 -75 -25 -92 -27 -225 -28 l-103 -1 0 -447 0 -448 113 -1 c61 0 128
-3 147 -7 149 -28 263 -102 341 -222 32 -49 96 -194 104 -235 1 -3 4 -14 8
-25 3 -11 8 -31 11 -45 3 -14 8 -36 11 -50 9 -38 35 -180 40 -220 13 -106 21
-191 31 -330 8 -104 11 -1188 4 -1225 -4 -16 -3 -42 1 -58 4 -16 3 -27 -2 -27
-6 0 -6 -6 -2 -15 5 -8 6 -43 3 -77 -3 -35 -5 -326 -5 -648 1 -518 5 -709 20
-816 2 -17 7 -57 10 -90 3 -32 8 -70 10 -84 3 -14 7 -47 11 -75 7 -56 11 -79
18 -103 3 -9 7 -33 10 -52 3 -19 8 -46 11 -60 3 -14 8 -36 11 -50 3 -14 8 -34
11 -45 4 -11 8 -22 8 -25 1 -3 5 -17 9 -31 4 -14 9 -34 11 -45 2 -10 4 -20 5
-21 2 -2 3 -6 5 -10 1 -5 7 -21 13 -36 7 -16 12 -30 12 -32 0 -2 9 -24 20 -49
11 -26 19 -49 19 -51 0 -28 161 -297 221 -370 45 -53 144 -150 185 -180 22
-17 42 -32 45 -35 25 -28 226 -126 335 -164 44 -16 87 -31 95 -34 21 -7 18 -7
85 -22 33 -7 65 -15 70 -16 26 -7 54 -12 105 -19 30 -4 66 -10 80 -12 14 -2
138 -7 276 -10 l251 -5 2 62 c1 35 4 67 7 72 3 4 2 8 -3 8 -9 0 -9 127 -1 136
3 2 2 19 -1 36 -4 17 -4 57 -1 90 3 32 3 58 0 58 -6 0 -5 129 2 136 3 3 2 20
-2 39 -4 19 -5 36 -3 39 5 5 5 57 0 116 l-2 25 -195 1 c-107 1 -223 5 -258 8
-215 22 -397 158 -511 382 -29 59 -96 246 -104 294 -2 14 -6 32 -10 40 -6 16
-25 141 -32 205 -2 22 -6 51 -9 65 -19 100 -37 520 -36 835 1 121 1 228 1 238
0 9 -1 23 -1 30 0 6 2 143 5 302 5 349 6 933 1 1030 -6 106 -16 227 -32 385
-8 81 -11 103 -33 235 -20 117 -26 155 -36 205 -3 14 -8 39 -11 55 -6 38 -42
179 -56 225 -42 135 -70 205 -141 350 -45 91 -89 174 -99 184 -10 11 -18 25
-18 32 0 7 -6 17 -13 21 -7 4 -21 22 -31 38 -21 33 -123 136 -173 175 l-31 24
70 70 c39 39 82 86 97 106 14 19 36 46 49 60 12 14 22 30 22 37 0 7 4 13 8 13
5 0 15 12 23 28 7 15 25 45 39 67 42 67 115 223 152 325 19 53 22 63 28 85 2
6 15 46 30 90 15 44 28 83 29 88 0 4 1 8 2 10 0 1 2 9 4 18 1 8 12 51 23 95
23 88 26 103 48 224 22 123 29 173 40 270 3 30 7 69 9 85 18 155 21 429 14
1380 -3 352 4 666 16 685 1 3 6 41 10 85 4 44 8 82 10 85 1 3 6 25 9 50 8 62
15 93 32 164 8 34 17 70 19 80 13 59 53 166 81 219 9 15 13 27 10 27 -6 0 62
114 97 163 46 64 129 139 193 174 77 41 118 47 389 49 143 1 267 3 275 3 13 1
15 54 15 413 l0 413 -307 2 c-168 1 -308 0 -310 -2z"/>
<path d="M6479 11833 c-1 -4 -2 -191 -3 -415 -1 -356 1 -408 14 -409 8 -1 132
-2 275 -3 143 -1 274 -6 290 -10 59 -15 152 -60 177 -87 10 -9 25 -23 35 -31
27 -19 103 -112 103 -125 0 -6 4 -13 9 -15 13 -5 85 -152 115 -236 25 -71 68
-231 80 -302 3 -19 8 -46 11 -60 6 -31 15 -91 20 -145 3 -22 7 -58 9 -80 16
-129 20 -306 17 -680 -6 -769 -5 -1129 2 -1225 4 -52 10 -129 13 -170 3 -41 7
-86 10 -100 5 -25 12 -81 19 -135 5 -45 15 -107 22 -135 3 -14 7 -34 9 -45 3
-27 14 -76 20 -97 3 -9 6 -25 8 -35 2 -10 11 -45 20 -78 9 -33 18 -67 20 -75
2 -8 7 -28 11 -45 4 -16 11 -35 16 -40 4 -6 10 -22 12 -35 2 -14 7 -32 10 -40
3 -8 16 -44 28 -80 13 -36 29 -76 36 -90 7 -14 13 -28 13 -32 0 -9 54 -123 78
-163 85 -147 220 -326 311 -410 l33 -31 -42 -27 c-65 -44 -174 -160 -233 -250
-51 -76 -137 -245 -137 -268 0 -6 -7 -24 -16 -40 -8 -17 -17 -38 -19 -47 -2
-10 -13 -44 -25 -77 -11 -33 -21 -61 -21 -62 0 -2 -1 -8 -4 -15 -22 -65 -91
-367 -100 -438 -2 -14 -4 -25 -5 -25 -2 0 -9 -35 -14 -80 -3 -22 -8 -50 -10
-62 -3 -12 -7 -50 -11 -85 -3 -35 -8 -70 -10 -78 -2 -8 -7 -53 -10 -100 -3
-47 -8 -103 -11 -125 -14 -122 -21 -745 -9 -765 3 -6 2 -10 -3 -10 -8 0 -7
-62 2 -85 2 -6 1 -30 -4 -53 -4 -23 -4 -40 -1 -37 9 5 6 -1271 -2 -1345 -4
-30 -9 -82 -12 -115 -15 -142 -32 -277 -42 -320 -2 -11 -6 -29 -8 -40 -40
-230 -122 -465 -185 -533 -11 -12 -20 -25 -20 -29 0 -29 -207 -193 -243 -193
-7 0 -17 -4 -22 -9 -6 -6 -21 -12 -35 -15 -14 -3 -36 -8 -50 -11 -56 -14 -95
-16 -307 -17 l-223 -1 0 -410 0 -409 258 5 c141 3 268 8 282 11 14 3 43 8 65
10 32 4 187 37 230 50 6 1 30 8 55 15 25 7 65 22 90 33 25 11 61 26 80 35 129
56 275 146 327 200 12 13 26 23 30 24 26 2 216 251 263 345 8 16 21 40 29 53
9 13 16 29 17 35 1 6 15 40 32 76 37 81 86 224 107 310 0 3 4 15 9 28 4 12 9
34 11 50 2 15 4 27 5 27 2 0 6 21 14 66 3 20 8 42 11 50 3 8 7 34 10 59 10 85
14 115 20 160 4 25 8 59 10 75 26 188 33 581 21 1140 -3 165 -9 437 -13 605
-13 610 -8 1057 13 1285 9 97 13 130 14 130 1 0 3 20 5 45 3 26 12 82 20 125
9 44 19 94 22 110 3 17 9 38 14 48 5 9 8 17 5 17 -8 0 41 135 73 202 45 94 99
158 171 206 111 73 178 92 335 97 55 2 108 4 118 4 16 1 17 29 17 446 l0 445
-97 1 c-153 2 -163 2 -163 12 0 4 -4 6 -9 3 -28 -17 -194 66 -256 129 -69 69
-78 81 -123 176 -43 90 -60 137 -87 239 -9 36 -19 72 -22 80 -3 8 -7 29 -9 45
-2 17 -6 41 -9 55 -12 50 -15 69 -19 112 -3 24 -7 61 -10 83 -5 46 -17 190
-22 285 -7 114 -3 924 6 1297 1 44 -1 86 -4 92 -4 6 -4 11 1 11 4 0 7 28 6 62
-7 198 -15 378 -17 413 -8 99 -17 202 -21 225 -4 27 -16 130 -21 170 -1 14 -3
25 -4 25 -1 0 -3 11 -5 25 -2 14 -6 39 -10 55 -3 17 -13 66 -21 110 -39 201
-140 507 -230 700 -27 58 -141 255 -153 265 -3 3 -19 23 -36 45 -33 45 -165
187 -165 178 0 -3 -8 3 -17 13 -42 46 -243 194 -243 179 0 -4 -15 4 -32 17
-18 13 -33 21 -33 19 0 -2 -21 6 -47 18 -26 11 -51 21 -57 21 -6 0 -30 7 -53
14 -24 8 -56 17 -73 20 -16 3 -41 9 -55 12 -39 10 -670 17 -671 7z"/>
</g>
</svg>
